<svg xmlns="http://www.w3.org/2000/svg" viewBox="0 0 271.93 118.4"><defs><style>.cls-1{fill:#040000;}</style></defs><g id="レイヤー_2" data-name="レイヤー 2"><g id="レイヤー_1-2" data-name="レイヤー 1"><path class="cls-1" d="M95.6,88.42a1.66,1.66,0,1,0-3.31,0v3.36H60.43V85.23H58v6.55H26.11V88.42a1.65,1.65,0,1,0-3.3,0v3.36h-13a59.2,59.2,0,0,0,98.86,0h-13Z"/><path class="cls-1" d="M.72,62.71h0v3.59l1.43.84V65.31h.15V67.1s0,.06,0,.15l.09,0H9.69V64.47l.12-.11.13.11v2.82H20.47A20.55,20.55,0,0,0,22,65.05v-.12h-.09v-.26h.41c.33-.13.6-1.07.73-1.58h-.23a.18.18,0,0,1-.18-.18.11.11,0,0,1,0-.08h0c0-.06.08-.11.18-.11H23v-.06a1.42,1.42,0,0,1,1.23-1.41,2.29,2.29,0,0,0,.1-.43V58.57h.18v2.24a1.91,1.91,0,0,0,.11.43,1.42,1.42,0,0,1,1.22,1.41v.06h.28c.1,0,.18,0,.18.11h0a.19.19,0,0,1,0,.08.18.18,0,0,1-.18.18h-.33c.2.61.54,1.46.83,1.58h.41v.26H27v.12A20.12,20.12,0,0,0,28.5,67.3h12a4.5,4.5,0,0,0,.81-.51v0a1.42,1.42,0,0,1,1.22-1.41,1.94,1.94,0,0,0,.11-.44V62.67h.18V64.9a1.94,1.94,0,0,0,.11.44,1.42,1.42,0,0,1,1.22,1.41v0a4.5,4.5,0,0,0,.81.51H48.5l6-4.18.55-.83h0V61.5h-.27V61H55V60.8h.16V57.15h.2V60.8h.2V61h7.27V60.8H63V57.15h.2V60.8h.16V61h.23v.52h-.27v.79h0l.56.83L69.9,67.3h3.54a4.08,4.08,0,0,0,.8-.51v0a1.43,1.43,0,0,1,1.23-1.41,2.8,2.8,0,0,0,.11-.44V62.67h.17V64.9a1.94,1.94,0,0,0,.11.44,1.42,1.42,0,0,1,1.22,1.41v0a4.5,4.5,0,0,0,.81.51h12a18.8,18.8,0,0,0,1.53-2.25v-.12h-.08v-.26h.41c.29-.12.63-1,.84-1.58h-.34a.18.18,0,0,1-.18-.18.19.19,0,0,1,0-.08h0c0-.06.08-.11.18-.11h.28v-.06a1.42,1.42,0,0,1,1.22-1.41,1.91,1.91,0,0,0,.11-.43V58.57h.18v2.24a1.91,1.91,0,0,0,.11.43,1.42,1.42,0,0,1,1.22,1.41v.06h.19c.1,0,.18,0,.18.11h0a.19.19,0,0,1,0,.08.18.18,0,0,1-.18.18h-.22c.12.51.4,1.45.72,1.58h.41v.26H96.4v.12a18.8,18.8,0,0,0,1.53,2.25h10.53V64.47l.13-.11.12.11v2.82H116l.09,0c0-.08,0-.15,0-.15V65.31h.15v1.82l1.44-.84V62.7h0v-.33a4.26,4.26,0,0,1,.7-1.59c0-.53,0-1.06,0-1.59A59.2,59.2,0,0,0,0,59.2c0,.53,0,1.06,0,1.59a4.26,4.26,0,0,1,.7,1.59Z"/><path class="cls-1" d="M156,18.29a12.72,12.72,0,0,1-.07,1.49,4,4,0,0,1-.23,1,1.35,1.35,0,0,1-.38.56.76.76,0,0,1-.49.18H145V53a.79.79,0,0,1-.2.54,1.35,1.35,0,0,1-.64.39,6.51,6.51,0,0,1-1.23.24,20.42,20.42,0,0,1-3.83,0,6.51,6.51,0,0,1-1.23-.24,1.44,1.44,0,0,1-.65-.39A.83.83,0,0,1,137,53V21.52h-9.79a.76.76,0,0,1-.51-.18,1.43,1.43,0,0,1-.36-.56,4,4,0,0,1-.23-1,12.72,12.72,0,0,1-.07-1.49,13.42,13.42,0,0,1,.07-1.54,4,4,0,0,1,.23-1,1.25,1.25,0,0,1,.36-.55.8.8,0,0,1,.51-.16h27.55a.8.8,0,0,1,.49.16,1.19,1.19,0,0,1,.38.55,4,4,0,0,1,.23,1A13.42,13.42,0,0,1,156,18.29Z"/><path class="cls-1" d="M182.33,39.34a20.45,20.45,0,0,1-.91,6.28,13.19,13.19,0,0,1-2.75,4.89,12.14,12.14,0,0,1-4.62,3.17,17.39,17.39,0,0,1-6.49,1.12,17.89,17.89,0,0,1-6.25-1,11.21,11.21,0,0,1-4.41-2.9,12,12,0,0,1-2.6-4.68,21.93,21.93,0,0,1-.84-6.34,20.57,20.57,0,0,1,.92-6.3,13.34,13.34,0,0,1,2.76-4.89,12.29,12.29,0,0,1,4.61-3.15,17.1,17.1,0,0,1,6.48-1.12,18,18,0,0,1,6.28,1,10.93,10.93,0,0,1,4.39,2.88A12,12,0,0,1,181.48,33,21.76,21.76,0,0,1,182.33,39.34Zm-7.82.3a19.9,19.9,0,0,0-.32-3.67,8.72,8.72,0,0,0-1.07-2.92,5.39,5.39,0,0,0-2-1.93,6.51,6.51,0,0,0-3.16-.69,6.61,6.61,0,0,0-3,.62,5.25,5.25,0,0,0-2.08,1.81,8.64,8.64,0,0,0-1.22,2.87,16.26,16.26,0,0,0-.41,3.82,19,19,0,0,0,.33,3.67,9.2,9.2,0,0,0,1.07,2.91,5.22,5.22,0,0,0,2,1.92,6.66,6.66,0,0,0,3.14.68,6.76,6.76,0,0,0,3-.62,5.33,5.33,0,0,0,2.09-1.8,8.31,8.31,0,0,0,1.2-2.85A16.35,16.35,0,0,0,174.51,39.64Z"/><path class="cls-1" d="M212.32,53.11a.79.79,0,0,1-.17.52,1.09,1.09,0,0,1-.6.37,6.33,6.33,0,0,1-1.19.21c-.51,0-1.16.07-2,.07s-1.5,0-2-.06a7,7,0,0,1-1.27-.19,1.91,1.91,0,0,1-.77-.38,2.27,2.27,0,0,1-.48-.63l-9-14.2V53.08a.8.8,0,0,1-.18.52,1.32,1.32,0,0,1-.62.38,5.48,5.48,0,0,1-1.17.23c-.48,0-1.09.07-1.84.07s-1.36,0-1.84-.07a5.37,5.37,0,0,1-1.16-.23,1.27,1.27,0,0,1-.62-.38.8.8,0,0,1-.18-.52V13.37a.89.89,0,0,1,.18-.55,1.37,1.37,0,0,1,.62-.41,5.23,5.23,0,0,1,1.16-.25,18.85,18.85,0,0,1,3.68,0,5.34,5.34,0,0,1,1.17.25,1.43,1.43,0,0,1,.62.41.89.89,0,0,1,.18.55V37l8-10.72a3.32,3.32,0,0,1,.54-.63,2,2,0,0,1,.8-.43,7,7,0,0,1,1.24-.22c.49-.05,1.12-.08,1.89-.08s1.37,0,1.89.08a6.1,6.1,0,0,1,1.23.22,1.31,1.31,0,0,1,.65.38.87.87,0,0,1,.18.56,2.45,2.45,0,0,1-.22,1,5.14,5.14,0,0,1-.68,1.08l-7.88,8.94,9.12,14.1a6.71,6.71,0,0,1,.52,1.05A2.06,2.06,0,0,1,212.32,53.11Z"/><path class="cls-1" d="M232.63,54.1l-3.26,9.55a2,2,0,0,1-1.48,1.08,14.37,14.37,0,0,1-3.54.33,14.2,14.2,0,0,1-1.93-.1,2.73,2.73,0,0,1-1.09-.35.79.79,0,0,1-.39-.6,2,2,0,0,1,.18-.88l3.59-9a1.93,1.93,0,0,1-.7-.56,2.34,2.34,0,0,1-.47-.8L214.27,28a4.91,4.91,0,0,1-.4-1.61,1.08,1.08,0,0,1,.37-.88,2.38,2.38,0,0,1,1.22-.44,17.15,17.15,0,0,1,2.28-.12c.86,0,1.55,0,2,.05a3.64,3.64,0,0,1,1.18.22,1.28,1.28,0,0,1,.63.56,5,5,0,0,1,.43,1.07l6.34,18h.09l5.8-18.39a2,2,0,0,1,.47-1,1.93,1.93,0,0,1,1-.38,15,15,0,0,1,2.32-.12,16,16,0,0,1,2.16.12,2.51,2.51,0,0,1,1.27.46,1.08,1.08,0,0,1,.41.89,4.4,4.4,0,0,1-.24,1.31Z"/><path class="cls-1" d="M271.93,39.34a20.76,20.76,0,0,1-.9,6.28,13.34,13.34,0,0,1-2.75,4.89,12.3,12.3,0,0,1-4.62,3.17,17.48,17.48,0,0,1-6.5,1.12,17.89,17.89,0,0,1-6.25-1,11.21,11.21,0,0,1-4.41-2.9,12,12,0,0,1-2.59-4.68,21.57,21.57,0,0,1-.85-6.34,20.57,20.57,0,0,1,.92-6.3,13.35,13.35,0,0,1,2.77-4.89,12.18,12.18,0,0,1,4.6-3.15,17.1,17.1,0,0,1,6.48-1.12,18.24,18.24,0,0,1,6.28,1,11,11,0,0,1,4.39,2.88A12.1,12.1,0,0,1,271.09,33,22.11,22.11,0,0,1,271.93,39.34Zm-7.82.3a19.9,19.9,0,0,0-.32-3.67,8.72,8.72,0,0,0-1.07-2.92,5.32,5.32,0,0,0-2-1.93,6.44,6.44,0,0,0-3.15-.69,6.55,6.55,0,0,0-3,.62,5.28,5.28,0,0,0-2.09,1.81,8.64,8.64,0,0,0-1.22,2.87,16.26,16.26,0,0,0-.41,3.82,18.25,18.25,0,0,0,.34,3.67,9,9,0,0,0,1.07,2.91,5.09,5.09,0,0,0,2,1.92,6.6,6.6,0,0,0,3.14.68,6.82,6.82,0,0,0,3-.62,5.31,5.31,0,0,0,2.08-1.8,8.23,8.23,0,0,0,1.21-2.85A16.94,16.94,0,0,0,264.11,39.64Z"/><path class="cls-1" d="M156,69.83a12.72,12.72,0,0,1-.07,1.49,4.12,4.12,0,0,1-.23,1,1.42,1.42,0,0,1-.38.56.76.76,0,0,1-.49.18H145v31.49a.81.81,0,0,1-.2.55,1.35,1.35,0,0,1-.64.39,6.51,6.51,0,0,1-1.23.24,20.42,20.42,0,0,1-3.83,0,6.51,6.51,0,0,1-1.23-.24,1.44,1.44,0,0,1-.65-.39.86.86,0,0,1-.19-.55V73.06h-9.79a.76.76,0,0,1-.51-.18,1.51,1.51,0,0,1-.36-.56,4.12,4.12,0,0,1-.23-1,12.72,12.72,0,0,1-.07-1.49,13.42,13.42,0,0,1,.07-1.54,4.19,4.19,0,0,1,.23-1,1.27,1.27,0,0,1,.36-.54.8.8,0,0,1,.51-.17h27.55a.81.81,0,0,1,.49.17,1.21,1.21,0,0,1,.38.54,4.19,4.19,0,0,1,.23,1A13.42,13.42,0,0,1,156,69.83Z"/><path class="cls-1" d="M182.33,90.87a20.36,20.36,0,0,1-.91,6.28,13.16,13.16,0,0,1-2.75,4.9,12.14,12.14,0,0,1-4.62,3.17,17.4,17.4,0,0,1-6.49,1.11,17.9,17.9,0,0,1-6.25-1,11.32,11.32,0,0,1-4.41-2.9,12,12,0,0,1-2.6-4.68,21.93,21.93,0,0,1-.84-6.34,20.53,20.53,0,0,1,.92-6.3,13.34,13.34,0,0,1,2.76-4.89,12.43,12.43,0,0,1,4.61-3.16A17.31,17.31,0,0,1,168.23,76a18,18,0,0,1,6.28,1,10.93,10.93,0,0,1,4.39,2.88,12,12,0,0,1,2.58,4.68A21.69,21.69,0,0,1,182.33,90.87Zm-7.82.31a19.82,19.82,0,0,0-.32-3.67,8.72,8.72,0,0,0-1.07-2.92,5.39,5.39,0,0,0-2-1.93A6.51,6.51,0,0,0,168,82a6.75,6.75,0,0,0-3,.61,5.36,5.36,0,0,0-2.08,1.82,8.67,8.67,0,0,0-1.22,2.86,16.39,16.39,0,0,0-.41,3.82,19,19,0,0,0,.33,3.67,9.17,9.17,0,0,0,1.07,2.92,5.29,5.29,0,0,0,2,1.92,6.66,6.66,0,0,0,3.14.68,6.76,6.76,0,0,0,3-.62,5.5,5.5,0,0,0,2.09-1.8,8.39,8.39,0,0,0,1.2-2.85A16.41,16.41,0,0,0,174.51,91.18Z"/><path class="cls-1" d="M212.7,104.61a.94.94,0,0,1-.15.53,1.12,1.12,0,0,1-.53.38,4,4,0,0,1-1,.23,13.38,13.38,0,0,1-1.55.07,14.13,14.13,0,0,1-1.62-.07,3.83,3.83,0,0,1-1-.23,1.1,1.1,0,0,1-.51-.38.94.94,0,0,1-.15-.53V101.5a17.26,17.26,0,0,1-4.55,3.63,10.24,10.24,0,0,1-4.79,1.2,10.79,10.79,0,0,1-4.66-.9,8,8,0,0,1-3.05-2.48,9.79,9.79,0,0,1-1.66-3.64,22.49,22.49,0,0,1-.5-5.14V77.68a.88.88,0,0,1,.17-.53,1.22,1.22,0,0,1,.6-.38,5.33,5.33,0,0,1,1.18-.23c.49-.05,1.1-.07,1.82-.07s1.36,0,1.85.07a5.37,5.37,0,0,1,1.16.23,1.35,1.35,0,0,1,.62.38.83.83,0,0,1,.18.53V92.9a14.66,14.66,0,0,0,.27,3.23,5.79,5.79,0,0,0,.83,1.92,3.82,3.82,0,0,0,1.42,1.23,4.26,4.26,0,0,0,2,.44A4.9,4.9,0,0,0,202,98.66a17.19,17.19,0,0,0,3.13-3.08V77.68a.88.88,0,0,1,.16-.53,1.31,1.31,0,0,1,.61-.38,5.37,5.37,0,0,1,1.16-.23c.48-.05,1.1-.07,1.84-.07s1.36,0,1.85.07a5,5,0,0,1,1.14.23,1.31,1.31,0,0,1,.61.38.83.83,0,0,1,.18.53Z"/><path class="cls-1" d="M236.37,80.18c0,.73,0,1.32-.06,1.79a5.44,5.44,0,0,1-.18,1.08,1.1,1.1,0,0,1-.32.55.8.8,0,0,1-.5.15,1.67,1.67,0,0,1-.54-.11l-.68-.23c-.25-.08-.53-.15-.83-.22a4.44,4.44,0,0,0-1-.11,3.43,3.43,0,0,0-1.27.26,5.37,5.37,0,0,0-1.31.8,9.83,9.83,0,0,0-1.42,1.45,25.54,25.54,0,0,0-1.59,2.23v16.79a.81.81,0,0,1-.18.53,1.29,1.29,0,0,1-.62.38,5.37,5.37,0,0,1-1.16.23c-.48,0-1.1.07-1.84.07s-1.36,0-1.84-.07a5.48,5.48,0,0,1-1.17-.23,1.31,1.31,0,0,1-.61-.38.77.77,0,0,1-.19-.53V77.68a.88.88,0,0,1,.16-.53,1.1,1.1,0,0,1,.54-.38,4.33,4.33,0,0,1,1-.23,13.45,13.45,0,0,1,1.56-.07,14.33,14.33,0,0,1,1.6.07,4,4,0,0,1,1,.23,1.12,1.12,0,0,1,.5.38.94.94,0,0,1,.15.53V81a20.78,20.78,0,0,1,2-2.49A11.39,11.39,0,0,1,229.33,77a5.75,5.75,0,0,1,1.69-.8,6.59,6.59,0,0,1,1.69-.22,8.45,8.45,0,0,1,.85,0,8.69,8.69,0,0,1,.94.15,6.16,6.16,0,0,1,.84.24,1.69,1.69,0,0,1,.53.29.93.93,0,0,1,.24.33,2.62,2.62,0,0,1,.14.5,7.45,7.45,0,0,1,.09.95C236.36,78.89,236.37,79.46,236.37,80.18Z"/></g></g></svg>