<svg xmlns="http://www.w3.org/2000/svg" viewBox="0 0 522.17 180.76"><defs><style>.cls-1{fill:#fff;}</style></defs><g id="レイヤー_2" data-name="レイヤー 2"><g id="レイヤー_1-2" data-name="レイヤー 1"><path class="cls-1" d="M139.53,163.58,119.63,33,100.75,6.09V179.64l38.78-16.06"/><path class="cls-1" d="M23.28,33.84,0,163l15.51,3,4.24-22.2L29.15,90l7.94,2-8.61,49.66c-.58,2.3,2.43,2.56,3.9,2.93l-4.55,23.77,2.37.45,4.52-23.65c.88.17,2.42.95,2.62-.56l8.75-50.39,5.54,1.36L43,145.23c-.58,2.3,2.43,2.56,3.9,2.93l-4.38,22.9,2.44.46,4.35-22.76c.89.17,2.43,1,2.62-.56l8.75-50.39,5.55,1.36L57.6,148.93c-.59,2.31,2.43,2.56,3.9,2.93l-4.22,22,2.27.44,4.14-21.85c1.38.3,4.23,1.63,4.61-.79L76.84,102l7.93,2c-2.53,14.67-9.41,54.74-12.87,72.63l21.48,4.1V0Z"/></g><g id="レイヤー_2-2" data-name="レイヤー 2"><path class="cls-1" d="M180.49,40.18H156.2V30.27H215v9.91H190.75V79.12H180.49Z"/><path class="cls-1" d="M219.5,50a4.85,4.85,0,0,1,1.5-3.63,5,5,0,0,1,3.59-1.47h30.92a4.94,4.94,0,0,1,3.59,1.47A4.86,4.86,0,0,1,260.61,50V74a4.87,4.87,0,0,1-1.51,3.63,4.94,4.94,0,0,1-3.59,1.47H224.59A5,5,0,0,1,221,77.65,4.87,4.87,0,0,1,219.5,74Zm31.06,19.4V54.62h-21v14.8Z"/><path class="cls-1" d="M268.28,30.27h10.05V56.09h9.21l8.31-11.17h11.93L295.85,60.83l12.28,18.29H296.48L287.4,65.79h-9.07V79.12H268.28Z"/><path class="cls-1" d="M313,71.23h30.77V66.35H316.16a5,5,0,0,1-5.1-5.1V44.92h10.05V58.46h22.61V44.92h10V74a4.87,4.87,0,0,1-1.5,3.63,5,5,0,0,1-3.59,1.47H313Z"/><path class="cls-1" d="M360.75,50a4.85,4.85,0,0,1,1.5-3.63,5,5,0,0,1,3.59-1.47h30.92a4.94,4.94,0,0,1,3.59,1.47,4.85,4.85,0,0,1,1.5,3.63V74a4.87,4.87,0,0,1-1.5,3.63,4.94,4.94,0,0,1-3.59,1.47H365.84a5,5,0,0,1-3.59-1.47,4.87,4.87,0,0,1-1.5-3.63Zm31.05,19.4V54.62h-21v14.8Z"/><path class="cls-1" d="M158.64,122.71a8.59,8.59,0,0,1,2.2-6.11,7.37,7.37,0,0,1,5.62-2.33H200.8a8.43,8.43,0,0,1,6.24,2.26,7.74,7.74,0,0,1,2.27,5.69v11.45a6.78,6.78,0,0,1,5.27,2.19,8,8,0,0,1,2,5.55v13.12a8.9,8.9,0,0,1-2.16,6.18,7.21,7.21,0,0,1-5.59,2.41H158.64Zm40.34,11v-9.43H169v9.43Zm7.26,19.47V143H169v10.12Z"/><path class="cls-1" d="M229.55,138.62h-7.4v-9.7H234.5a5,5,0,0,1,3.6,1.47,4.85,4.85,0,0,1,1.5,3.63v29.1h-10Zm-.7-23.8H238.9v10.05H228.85Z"/><path class="cls-1" d="M247.41,134a4.83,4.83,0,0,1,1.51-3.67,5,5,0,0,1,3.59-1.43h37.34v7.89H257.46v18.42H282.1v-5.09H266.4v-8h20.65a5,5,0,0,1,5.1,5.1V158a4.86,4.86,0,0,1-1.5,3.67,5,5,0,0,1-3.6,1.43H252.51a4.94,4.94,0,0,1-3.59-1.47,4.84,4.84,0,0,1-1.51-3.63Z"/><path class="cls-1" d="M306.66,153.21h48.51V143.09H314.48a7.9,7.9,0,0,1-3.1-.6,7.54,7.54,0,0,1-4.12-4.08,7.51,7.51,0,0,1-.6-3V122.08a7.93,7.93,0,0,1,.6-3.1,7.4,7.4,0,0,1,1.64-2.48,7.59,7.59,0,0,1,5.44-2.23H360v9.91H316.92v9h40.69a7.57,7.57,0,0,1,3.1.63,7.69,7.69,0,0,1,2.48,1.67,7.54,7.54,0,0,1,1.64,2.44,7.35,7.35,0,0,1,.6,2.93V155.3a7.65,7.65,0,0,1-.63,3.11,7.94,7.94,0,0,1-1.68,2.47,7.54,7.54,0,0,1-2.44,1.64,7.35,7.35,0,0,1-2.93.6H306.66Z"/><path class="cls-1" d="M378.41,138.62H371v-9.7h12.35a5,5,0,0,1,3.6,1.47,4.85,4.85,0,0,1,1.5,3.63v29.1h-10Zm-.7-23.8h10.05v10.05H377.71Z"/><path class="cls-1" d="M424.12,137.57H397v-8.65h35.17a5.91,5.91,0,0,1,4.29,1.33,5.71,5.71,0,0,1,1.36,4.25,6.28,6.28,0,0,1-.94,3.74,10.27,10.27,0,0,1-3.31,2.61L410,153.91h27.64v9.21h-37a6.43,6.43,0,0,1-4.36-1.22c-.91-.82-1.36-2.2-1.36-4.16a8.63,8.63,0,0,1,.17-1.85,4.36,4.36,0,0,1,.66-1.5,7.05,7.05,0,0,1,1.26-1.32,15.86,15.86,0,0,1,1.95-1.33Z"/><path class="cls-1" d="M443.45,134a4.85,4.85,0,0,1,1.5-3.63,5,5,0,0,1,3.59-1.47h31.83a5,5,0,0,1,3.59,1.47,4.85,4.85,0,0,1,1.5,3.63v11.23a4.88,4.88,0,0,1-1.5,3.63,5,5,0,0,1-3.59,1.47H453.5v4.81h31.61v8H448.54a5,5,0,0,1-3.59-1.47,4.87,4.87,0,0,1-1.5-3.63Zm32,8.51v-5.72H453.5v5.72Z"/><path class="cls-1" d="M491.88,134a5,5,0,0,1,5.09-5.1h25.2v9.7H501.93v24.5H491.88Z"/></g></g></svg>