<svg id="レイヤー_1" data-name="レイヤー 1" xmlns="http://www.w3.org/2000/svg" viewBox="0 0 100 100"><defs><style>.cls-1{fill:#0fea52;}</style></defs><ellipse class="cls-1" cx="47.37" cy="65.93" rx="32.14" ry="22.5"/><path class="cls-1" d="M23.38,18.72c-4.27,2-3,17.58,2.65,28.83,2.68,5.34,8.51,14,12.3,12.87,4-1.17,4.89-12.86,2.19-22C37.17,27.08,27.44,16.86,23.38,18.72Z"/><path class="cls-1" d="M7.38,32.72c-4.27,2-3,17.58,2.65,28.83,2.68,5.34,8.51,14,12.3,12.87,4-1.17,4.89-12.86,2.19-22C21.17,41.08,11.44,30.86,7.38,32.72Z"/><path class="cls-1" d="M74.12,18.92C69.48,18.22,62,32,60.61,44.52c-.67,5.95-.5,16.38,3.29,17.51,4,1.19,11.11-8.11,13.84-17.26C81.11,33.45,78.53,19.57,74.12,18.92Z"/><path class="cls-1" d="M49.37,11.58C44.7,12.1,41,27.35,42.89,39.8c.88,5.91,3.72,16,7.68,16.07,4.15.13,8.66-10.7,8.94-20.23C59.86,23.82,53.81,11.08,49.37,11.58Z"/><path class="cls-1" d="M94.36,47.86c-3.26-3.37-17.57,3-26.28,12.14-4.14,4.31-10.35,12.7-8,15.9,2.44,3.36,13.76.31,21.47-5.3C91.09,63.65,97.47,51.06,94.36,47.86Z"/></svg>